<svg xmlns="http://www.w3.org/2000/svg" version="1.1" xmlns:xlink="http://www.w3.org/1999/xlink" width="1000" height="1000"><metadata><rdf:RDF xmlns:rdf="http://www.w3.org/1999/02/22-rdf-syntax-ns#" xmlns:dc="http://purl.org/dc/elements/1.1/"><rdf:Description><dc:creator>RealFaviconGenerator</dc:creator><dc:source>https://realfavicongenerator.net</dc:source></rdf:Description></rdf:RDF></metadata><g clip-path="url(#SvgjsClipPath1196)"><rect width="1000" height="1000" fill="#ffffff"></rect><g transform="matrix(2.192982456140351,0,0,2.192982456140351,-5.684341886080802e-14,-5.684341886080802e-14)"><svg xmlns="http://www.w3.org/2000/svg" viewBox="72 72 456 456" preserveAspectRatio="xMidYMid meet" width="456" height="456"><g transform="translate(0,600) scale(0.1,-0.1)" fill="#000000" stroke="none">
    <path d="M2863 5090 c-152 -67 -337 -241 -471 -441 -136 -204 -272 -532 -272 -656 0 -98 181 -325 370 -466 53 -40 105 -77 116 -84 27 -17 -43 2 -102 28 -108 46 -251 165 -343 284 l-22 29 -83 -17 c-105 -21 -293 -84 -379 -127 -142 -70 -236 -186 -521 -645 -161 -259 -188 -343 -152 -469 22 -76 100 -159 166 -176 99 -27 205 3 294 81 68 60 75 78 42 102 -48 34 -102 142 -94 184 2 11 16 0 45 -39 48 -63 108 -98 169 -98 75 0 82 25 16 59 -49 25 -81 61 -97 107 -16 47 -6 78 27 82 29 4 67 -29 115 -101 18 -26 37 -47 43 -47 6 0 10 33 10 83 0 90 2 85 -82 190 -19 24 -20 29 -8 37 42 27 151 -2 259 -68 28 -18 63 -32 77 -32 24 0 26 3 20 31 -9 47 -39 82 -116 135 -74 50 -81 64 -56 113 16 29 45 46 98 56 26 5 46 0 90 -24 63 -32 74 -29 64 23 -13 66 -68 96 -177 96 -104 0 -146 -19 -214 -99 -30 -34 -64 -63 -85 -71 -19 -7 -73 -37 -118 -67 -76 -49 -82 -51 -63 -24 12 16 56 58 99 91 42 34 103 90 134 125 82 89 119 105 248 105 84 0 112 -4 146 -21 49 -23 101 -78 116 -122 10 -28 13 -29 52 -22 293 47 460 59 734 52 l227 -5 78 -35 c43 -19 80 -37 83 -40 3 -2 -52 -92 -121 -198 l-127 -194 109 -101 108 -101 -37 -44 c-20 -24 -59 -71 -87 -104 -28 -33 -51 -63 -51 -67 0 -5 146 -186 216 -269 12 -13 -2 -34 -101 -152 l-114 -138 105 -130 105 -130 -100 -107 c-55 -59 -125 -132 -156 -162 -31 -30 -75 -77 -98 -104 l-42 -49 150 6 c181 8 392 38 512 73 115 33 245 97 283 140 l30 35 0 189 0 190 -27 0 c-15 0 -65 -16 -111 -36 -45 -19 -133 -48 -195 -63 -178 -45 -171 -44 -196 -10 -20 27 -21 32 -7 42 12 9 16 36 18 122 l3 110 35 5 35 5 0 60 0 60 58 3 57 3 0 59 c0 69 2 68 -105 50 l-60 -10 -28 32 -28 33 43 8 c159 31 243 50 289 66 l54 18 5 59 5 59 63 3 62 3 0 189 c0 105 -2 190 -5 190 -3 0 -16 -7 -29 -15 -44 -29 -185 -74 -292 -94 -135 -24 -204 -33 -204 -24 0 3 11 25 25 48 l24 43 -79 47 c-44 25 -80 50 -80 53 0 4 40 81 89 172 100 186 84 174 211 157 l56 -8 17 40 c43 97 152 148 295 137 104 -8 142 -26 217 -107 32 -35 76 -76 99 -93 59 -42 168 -138 162 -143 -2 -2 -33 14 -68 36 -35 22 -90 52 -121 65 -39 18 -77 47 -124 96 l-68 71 -75 10 c-108 15 -156 5 -202 -41 -27 -27 -38 -46 -38 -68 0 -32 14 -50 25 -32 3 6 25 20 47 31 47 24 113 21 155 -6 28 -19 60 -78 45 -83 -22 -7 -138 -85 -165 -111 -51 -46 -76 -121 -42 -121 8 0 63 25 123 56 93 48 115 55 165 56 83 0 88 -11 34 -69 -59 -63 -88 -124 -94 -195 -5 -54 -4 -58 16 -58 23 0 38 14 82 78 29 41 81 82 106 82 24 0 36 -40 24 -80 -16 -53 -46 -87 -103 -116 -27 -14 -48 -30 -46 -36 8 -23 61 -28 115 -13 41 12 62 27 106 75 l54 60 61 0 61 0 3 93 3 92 93 3 92 3 0 67 c0 65 -3 72 -53 153 -203 323 -304 441 -433 507 -93 48 -373 132 -438 132 -14 0 -30 -10 -41 -26 -33 -51 -171 -187 -228 -226 -57 -38 -157 -88 -178 -88 -6 0 23 26 63 59 136 109 289 283 358 404 29 52 32 64 27 116 -7 81 -77 285 -147 427 -140 287 -347 526 -544 629 -78 40 -127 44 -193 15z m231 -936 c179 -28 426 -115 471 -164 15 -17 10 -16 -51 5 -38 13 -72 21 -75 17 -3 -4 -32 -45 -64 -92 -180 -260 -326 -390 -440 -390 -80 0 -183 68 -294 194 -45 52 -174 227 -206 281 -9 15 -16 15 -79 -9 -67 -25 -69 -26 -50 -5 27 30 73 52 197 93 241 80 406 99 591 70z m624 -2656 l3 -38 -40 0 c-40 0 -41 1 -41 33 0 42 7 49 45 45 27 -3 30 -7 33 -40z"></path>
    <path d="M4970 3250 l0 -50 55 0 55 0 0 50 0 50 -55 0 -55 0 0 -50z"></path>
    <path d="M4812 3023 c3 -36 5 -38 38 -38 33 0 35 2 38 38 l3 37 -41 0 -41 0 3 -37z"></path>
    <path d="M1840 2671 l0 -210 30 -34 c65 -74 246 -137 508 -178 106 -16 202 -22 422 -26 157 -3 296 -4 309 -2 23 4 21 8 -38 77 -33 41 -61 76 -61 78 0 3 38 51 85 107 l84 102 -40 41 -41 42 -291 5 c-512 9 -821 70 -944 187 l-23 21 0 -210z m264 -82 c48 -38 27 -129 -31 -129 -59 0 -95 88 -53 130 26 26 51 25 84 -1z"></path>
    <path d="M4977 2844 c-4 -4 -7 -31 -7 -61 l0 -53 60 0 61 0 -3 58 -3 57 -50 3 c-28 2 -54 0 -58 -4z"></path>
    <path d="M4622 2762 c-6 -2 -7 -76 -3 -159 1 -9 25 -13 86 -13 l85 0 0 85 0 85 -42 2 c-77 3 -118 3 -126 0z"></path>
    <path d="M4300 2415 l0 -116 113 3 112 3 3 113 3 112 -116 0 -115 0 0 -115z"></path>
    <path d="M4874 2466 c-3 -8 -4 -25 -2 -38 2 -19 10 -24 41 -26 l37 -3 0 40 c0 40 -1 41 -35 41 -22 0 -38 -6 -41 -14z"></path>
    <path d="M3880 2290 l0 -70 70 0 70 0 0 70 0 70 -70 0 -70 0 0 -70z"></path>
    <path d="M1840 2144 c0 -256 -3 -250 131 -319 185 -95 550 -150 962 -143 l189 3 -52 67 -52 68 93 117 c51 65 99 126 107 135 12 14 12 20 -1 38 -14 21 -21 21 -358 24 -379 3 -502 15 -708 67 -131 33 -232 77 -278 122 l-33 31 0 -210z m273 -96 c40 -47 14 -118 -44 -118 -62 0 -92 91 -42 129 30 24 58 20 86 -11z"></path>
    <path d="M4700 2170 l0 -70 70 0 70 0 0 70 0 70 -70 0 -70 0 0 -70z"></path>
    <path d="M4100 2035 l0 -95 95 0 95 0 0 95 0 95 -95 0 -95 0 0 -95z"></path>
    <path d="M4480 2030 l0 -40 40 0 40 0 0 40 0 40 -40 0 -40 0 0 -40z"></path>
    <path d="M3580 1985 l0 -45 50 0 50 0 0 45 0 45 -50 0 -50 0 0 -45z"></path>
    <path d="M3820 1945 l0 -65 55 0 55 0 0 65 0 65 -55 0 -55 0 0 -65z"></path>
    <path d="M3502 1823 c2 -22 8 -28 28 -28 20 0 26 6 28 28 3 24 0 27 -28 27 -28 0 -31 -3 -28 -27z"></path>
    <path d="M4360 1740 l0 -80 80 0 80 0 0 80 0 80 -80 0 -80 0 0 -80z"></path>
    <path d="M1840 1601 l0 -210 31 -36 c18 -20 66 -52 113 -75 173 -85 393 -125 781 -145 l121 -6 159 208 c88 114 162 211 164 216 1 4 -5 17 -14 27 -16 17 -30 18 -218 13 -506 -14 -940 60 -1099 188 l-38 30 0 -210z m270 -81 c37 -37 22 -110 -26 -124 -33 -10 -84 37 -84 77 0 61 67 90 110 47z"></path>
    <path d="M4067 1753 c-4 -3 -7 -21 -7 -40 0 -32 1 -33 40 -33 l40 0 0 40 c0 39 -1 40 -33 40 -19 0 -37 -3 -40 -7z"></path>
    <path d="M4170 1500 c0 -39 1 -40 35 -40 34 0 35 1 35 40 0 39 -1 40 -35 40 -34 0 -35 -1 -35 -40z"></path>
  </g></svg></g></g><defs><clipPath id="SvgjsClipPath1196"><rect width="1000" height="1000" x="0" y="0" rx="350" ry="350"></rect></clipPath></defs></svg>