<svg
  xmlns="http://www.w3.org/2000/svg"
  viewBox="0 0 290 282"
  fill="none"
>
  <g
    transform="translate(0,282) scale(0.1,-0.1)"
    fill="currentColor"
    stroke="none"
  >
    <path d="M1140 2773 c-28 -20 -270 -427 -270 -455 0 -45 20 -58 100 -64 41 -4 76 -8 78 -9 2 -2 -38 -84 -87 -184 l-91 -181 0 -128 c0 -112 2 -131 18 -145 24 -22 65 -21 85 1 14 15 17 40 17 123 l0 104 104 205 104 205 494 5 c271 3 498 8 504 12 6 4 53 77 104 163 51 85 96 155 100 155 3 0 77 -144 163 -320 l157 -320 0 -629 0 -629 -214 -91 c-118 -50 -217 -91 -220 -91 -3 0 -6 303 -6 674 l0 673 75 183 c41 101 75 195 75 210 0 52 -57 77 -98 43 -12 -10 -56 -107 -102 -221 l-80 -202 0 -695 0 -694 -476 -3 c-458 -3 -476 -4 -490 -22 -21 -30 -17 -72 8 -90 20 -14 87 -16 536 -16 l513 0 287 121 c158 67 295 130 305 141 16 19 17 66 17 693 l0 672 -194 394 c-106 217 -200 400 -207 406 -22 18 -1284 24 -1309 6z"/>
    <path d="M280 1970 c-25 -25 -26 -64 0 -87 10 -10 98 -56 195 -102 l175 -84 0 -74 0 -73 -275 0 c-262 0 -276 -1 -295 -20 -18 -18 -20 -33 -20 -180 0 -147 2 -162 20 -180 12 -12 33 -20 54 -20 43 0 28 120 112 -885 9 -110 21 -210 25 -223 5 -12 20 -27 34 -32 39 -15 677 -13 710 2 16 7 28 24 34 47 8 32 29 261 77 856 21 258 12 235 89 235 103 0 105 5 105 200 0 147 -2 162 -20 180 -19 19 -33 20 -270 20 l-250 0 0 96 c0 52 -5 104 -10 115 -12 22 -418 229 -450 229 -11 0 -29 -9 -40 -20z m910 -620 l0 -70 -500 0 -500 0 0 70 0 70 500 0 500 0 0 -70z"/>
  </g>
</svg>
