<svg version="1.0" xmlns="http://www.w3.org/2000/svg" width="64" height="64" viewBox="80 60 440 480" preserveAspectRatio="xMidYMid meet" aria-label="Hoàn tiền">
  <defs>
    <linearGradient id="favicon-coin-outer" x1="306" y1="308" x2="506" y2="512" gradientUnits="userSpaceOnUse">
      <stop offset="0" stop-color="#FFE45C"/>
      <stop offset="0.5" stop-color="#FFB000"/>
      <stop offset="1" stop-color="#F28C00"/>
    </linearGradient>
    <linearGradient id="favicon-coin-face" x1="346" y1="345" x2="482" y2="482" gradientUnits="userSpaceOnUse">
      <stop offset="0" stop-color="#F8B62B"/>
      <stop offset="1" stop-color="#DF8F0B"/>
    </linearGradient>
  </defs>

  <g transform="translate(0,600) scale(0.1,-0.1)" fill="#FF4C51" stroke="none">
    <path d="M2847 5180 c-60 -18 -157 -64 -191 -91 -158 -125 -245 -232 -336 -415 -92 -186 -162 -429 -185 -641 l-7 -63 -464 0 c-500 0 -506 -1 -562 -53 -50 -46 -55 -71 -48 -212 3 -71 11 -188 16 -260 13 -174 29 -390 60 -830 6 -77 15 -198 20 -270 10 -132 41 -564 60 -845 20 -291 36 -369 92 -469 60 -106 192 -197 322 -220 41 -8 481 -11 1380 -11 1099 0 1332 3 1388 14 181 39 302 151 358 333 21 69 25 111 70 763 6 80 15 204 20 275 5 72 14 195 20 275 6 80 15 206 20 280 5 74 15 203 20 285 6 83 21 292 34 465 16 221 20 326 13 353 -11 45 -82 111 -128 121 -17 3 -237 6 -489 6 l-457 0 -7 73 c-10 95 -40 242 -70 342 -81 268 -186 456 -341 609 -142 140 -262 196 -435 202 -84 3 -119 0 -173 -16z m214 -200 c277 -52 510 -417 583 -917 7 -45 10 -85 8 -88 -7 -7 -1297 -7 -1304 0 -5 6 13 138 32 231 20 95 84 283 125 364 118 236 267 378 429 410 58 11 67 11 127 0z m194 -1555 c108 -26 277 -95 308 -126 38 -39 37 -90 -2 -130 -39 -39 -67 -37 -176 10 -124 53 -202 72 -323 78 -220 12 -341 -52 -401 -212 -27 -72 -28 -162 -2 -213 54 -105 172 -176 442 -265 177 -59 242 -88 329 -147 107 -73 181 -163 228 -273 24 -56 27 -74 26 -187 0 -107 -3 -134 -23 -185 -56 -142 -161 -260 -286 -320 -90 -43 -152 -55 -279 -55 -167 0 -293 31 -481 120 -121 57 -281 154 -295 180 -18 33 -11 77 16 109 39 47 85 43 172 -13 166 -108 364 -187 514 -206 204 -25 364 54 442 220 27 57 31 76 31 150 0 71 -4 93 -25 134 -65 127 -207 224 -420 286 -41 12 -116 37 -166 56 -324 124 -484 338 -432 578 49 222 175 361 379 416 62 17 97 19 214 16 84 -2 168 -10 210 -21z"/>
  </g>

  <g fill="#FF4C51">
    <rect x="174" y="210" width="252" height="250" rx="58"/>
    <ellipse cx="286" cy="398" rx="126" ry="72"/>
  </g>

  <g>
    <circle cx="418" cy="420" r="112" fill="url(#favicon-coin-outer)"/>
    <circle cx="418" cy="420" r="91" fill="none" stroke="#FFF064" stroke-width="11"/>
    <circle cx="418" cy="420" r="75" fill="url(#favicon-coin-face)"/>
    <text x="418" y="462" text-anchor="middle" font-size="132" font-weight="900" font-family="Arial, Helvetica, sans-serif" fill="#FFF6A3" stroke="#A45E00" stroke-width="7" paint-order="stroke">đ</text>
  </g>
</svg>
